<?xml version="1.0" encoding="UTF-8"?>
<svg xmlns="http://www.w3.org/2000/svg" xmlns:xlink="http://www.w3.org/1999/xlink" width="64pt" height="64pt" viewBox="0 0 64 64" version="1.1">
<g id="surface17757159">
<path style=" stroke:none;fill-rule:nonzero;fill:rgb(1.568628%,20%,44.705883%);fill-opacity:1;" d="M 31.910156 2.5625 C 31.769531 2.5625 31.628906 2.585938 31.492188 2.632812 L 4.699219 11.957031 C 4.132812 12.15625 3.777344 12.722656 3.851562 13.320312 L 8.085938 48.039062 C 8.136719 48.449219 8.378906 48.808594 8.742188 49.007812 L 31.332031 61.285156 C 31.523438 61.390625 31.734375 61.441406 31.941406 61.441406 C 32.152344 61.441406 32.367188 61.386719 32.558594 61.28125 L 55.261719 48.835938 C 55.625 48.640625 55.867188 48.277344 55.917969 47.871094 L 60.148438 13.15625 C 60.222656 12.554688 59.863281 11.980469 59.289062 11.789062 L 32.324219 2.628906 C 32.191406 2.582031 32.050781 2.5625 31.910156 2.5625 Z M 32 8.960938 L 48.640625 44.800781 L 42.960938 44.800781 L 39.398438 37.128906 L 24.601562 37.128906 L 21.039062 44.800781 L 15.359375 44.800781 Z M 32 21.121094 L 26.984375 32 L 37.015625 32 Z M 32 21.121094 "/>
</g>
</svg>
