<?xml version="1.0" encoding="UTF-8"?>
<svg xmlns="http://www.w3.org/2000/svg" xmlns:xlink="http://www.w3.org/1999/xlink" width="25pt" height="25pt" viewBox="0 0 25 25" version="1.1">
<g id="surface16840024">
<path style=" stroke:none;fill-rule:nonzero;fill:rgb(100%,100%,100%);fill-opacity:1;" d="M 12.5 1.5 C 6.425781 1.5 1.5 6.425781 1.5 12.5 C 1.5 18.015625 5.5625 22.570312 10.855469 23.363281 L 10.855469 15.414062 L 8.132812 15.414062 L 8.132812 12.523438 L 10.855469 12.523438 L 10.855469 10.601562 C 10.855469 7.414062 12.40625 6.015625 15.054688 6.015625 C 16.324219 6.015625 16.992188 6.109375 17.3125 6.152344 L 17.3125 8.675781 L 15.503906 8.675781 C 14.382812 8.675781 13.988281 9.742188 13.988281 10.945312 L 13.988281 12.523438 L 17.28125 12.523438 L 16.835938 15.414062 L 13.988281 15.414062 L 13.988281 23.386719 C 19.359375 22.660156 23.5 18.070312 23.5 12.5 C 23.5 6.425781 18.574219 1.5 12.5 1.5 Z M 12.5 1.5 "/>
</g>
</svg>
