<?xml version="1.0" encoding="UTF-8"?>
<svg xmlns="http://www.w3.org/2000/svg" xmlns:xlink="http://www.w3.org/1999/xlink" width="25pt" height="25pt" viewBox="0 0 25 25" version="1.1">
<g id="surface16840998">
<path style=" stroke:none;fill-rule:nonzero;fill:rgb(100%,100%,100%);fill-opacity:1;" d="M 8.894531 23.417969 C 9.25 23.265625 9.5 22.910156 9.5 22.5 L 9.5 19.800781 C 9.5 19.703125 9.507812 19.597656 9.519531 19.496094 C 9.511719 19.496094 9.507812 19.5 9.5 19.5 C 9.5 19.5 8 19.5 7.699219 19.5 C 6.949219 19.5 6.300781 19.199219 6 18.601562 C 5.648438 17.949219 5.5 16.851562 4.601562 16.25 C 4.449219 16.148438 4.550781 16 4.851562 16 C 5.148438 16.050781 5.800781 16.449219 6.199219 17 C 6.648438 17.550781 7.101562 18 7.898438 18 C 9.144531 18 9.808594 17.9375 10.210938 17.722656 C 10.679688 17.027344 11.324219 16.5 12 16.5 L 12 16.488281 C 9.164062 16.398438 7.355469 15.453125 6.511719 14 C 4.679688 14.019531 3.085938 14.203125 2.175781 14.351562 C 2.144531 14.191406 2.121094 14.027344 2.097656 13.859375 C 2.996094 13.710938 4.519531 13.535156 6.269531 13.503906 C 6.214844 13.363281 6.167969 13.222656 6.125 13.078125 C 4.371094 12.988281 2.855469 13.058594 2.03125 13.128906 C 2.023438 12.960938 2.007812 12.796875 2.007812 12.628906 C 2.832031 12.558594 4.304688 12.492188 6.015625 12.570312 C 5.976562 12.320312 5.949219 12.066406 5.949219 11.800781 C 5.949219 10.949219 6.25 10.050781 6.800781 9.300781 C 6.550781 8.449219 6.199219 6.652344 6.902344 6 C 8.25 6 9.199219 6.652344 9.652344 7.050781 C 10.5 6.699219 11.449219 6.5 12.5 6.5 C 13.550781 6.5 14.5 6.699219 15.300781 7.050781 C 15.75 6.648438 16.699219 6 18.050781 6 C 18.800781 6.699219 18.398438 8.5 18.148438 9.300781 C 18.699219 10.050781 19 10.898438 18.949219 11.800781 C 18.949219 12.042969 18.925781 12.277344 18.894531 12.503906 C 20.644531 12.417969 22.160156 12.488281 22.996094 12.554688 C 22.996094 12.722656 22.980469 12.886719 22.972656 13.054688 C 22.136719 12.984375 20.585938 12.914062 18.792969 13.011719 C 18.746094 13.179688 18.695312 13.34375 18.628906 13.5 C 20.402344 13.523438 21.960938 13.695312 22.902344 13.84375 C 22.882812 14.011719 22.855469 14.175781 22.828125 14.339844 C 21.871094 14.183594 20.242188 14.007812 18.386719 13.996094 C 17.554688 15.4375 15.777344 16.375 13 16.484375 L 13 16.5 C 14.300781 16.5 15.5 18.449219 15.5 19.800781 L 15.5 22.5 C 15.5 22.910156 15.75 23.265625 16.105469 23.417969 C 20.683594 21.902344 24 17.582031 24 12.5 C 24 6.160156 18.839844 1 12.5 1 C 6.160156 1 1 6.160156 1 12.5 C 1 17.582031 4.316406 21.902344 8.894531 23.417969 Z M 8.894531 23.417969 "/>
</g>
</svg>
