<?xml version="1.0" encoding="UTF-8"?>
<svg xmlns="http://www.w3.org/2000/svg" xmlns:xlink="http://www.w3.org/1999/xlink" width="64pt" height="64pt" viewBox="0 0 64 64" version="1.1">
<g id="surface17756409">
<path style=" stroke:none;fill-rule:nonzero;fill:rgb(1.568628%,20%,44.705883%);fill-opacity:1;" d="M 57.949219 2.976562 C 57.710938 2.710938 57.363281 2.558594 57.003906 2.558594 L 6.996094 2.558594 C 6.636719 2.558594 6.289062 2.710938 6.050781 2.976562 C 5.804688 3.238281 5.683594 3.59375 5.71875 3.953125 L 10.226562 54.421875 C 10.269531 54.949219 10.640625 55.390625 11.148438 55.539062 L 31.644531 61.390625 C 31.753906 61.425781 31.875 61.441406 31.996094 61.441406 C 32.113281 61.441406 32.230469 61.425781 32.34375 61.390625 L 52.855469 55.539062 C 53.363281 55.390625 53.730469 54.949219 53.78125 54.421875 L 58.28125 3.953125 C 58.316406 3.59375 58.195312 3.238281 57.949219 2.976562 Z M 47.164062 20.375 L 23.085938 20.375 L 23.660156 26.890625 L 46.585938 26.890625 L 44.863281 46.144531 L 31.988281 50.035156 L 31.863281 49.996094 L 19.140625 46.140625 L 18.445312 38.296875 L 24.679688 38.296875 L 24.949219 41.339844 L 32.066406 42.828125 L 39.050781 41.339844 L 39.796875 33.101562 L 17.980469 33.101562 L 16.285156 14.148438 L 47.71875 14.148438 Z M 47.164062 20.375 "/>
</g>
</svg>
