<?xml version="1.0" encoding="UTF-8"?>
<svg xmlns="http://www.w3.org/2000/svg" xmlns:xlink="http://www.w3.org/1999/xlink" width="25pt" height="25pt" viewBox="0 0 25 25" version="1.1">
<g id="surface16840222">
<path style=" stroke:none;fill-rule:nonzero;fill:rgb(100%,100%,100%);fill-opacity:1;" d="M 8 1.5 C 4.414062 1.5 1.5 4.414062 1.5 8 L 1.5 17 C 1.5 20.585938 4.414062 23.5 8 23.5 L 17 23.5 C 20.585938 23.5 23.5 20.585938 23.5 17 L 23.5 8 C 23.5 4.414062 20.585938 1.5 17 1.5 Z M 18.5 5.5 C 19.050781 5.5 19.5 5.949219 19.5 6.5 C 19.5 7.050781 19.050781 7.5 18.5 7.5 C 17.949219 7.5 17.5 7.050781 17.5 6.5 C 17.5 5.949219 17.949219 5.5 18.5 5.5 Z M 12.5 7 C 15.535156 7 18 9.464844 18 12.5 C 18 15.535156 15.535156 18 12.5 18 C 9.464844 18 7 15.535156 7 12.5 C 7 9.464844 9.464844 7 12.5 7 Z M 12.5 8 C 10.019531 8 8 10.019531 8 12.5 C 8 14.980469 10.019531 17 12.5 17 C 14.980469 17 17 14.980469 17 12.5 C 17 10.019531 14.980469 8 12.5 8 Z M 12.5 8 "/>
</g>
</svg>
