<?xml version="1.0" encoding="UTF-8"?>
<svg xmlns="http://www.w3.org/2000/svg" xmlns:xlink="http://www.w3.org/1999/xlink" width="64pt" height="64pt" viewBox="0 0 64 64" version="1.1">
<g id="surface17755807">
<path style=" stroke:none;fill-rule:nonzero;fill:rgb(1.568628%,20%,44.705883%);fill-opacity:1;" d="M 55.46875 5.121094 L 8.535156 5.121094 C 6.648438 5.121094 5.121094 6.648438 5.121094 8.535156 L 5.121094 55.464844 C 5.121094 57.351562 6.648438 58.878906 8.535156 58.878906 L 55.464844 58.878906 C 57.351562 58.878906 58.878906 57.351562 58.878906 55.46875 L 58.878906 8.535156 C 58.878906 6.648438 57.351562 5.121094 55.46875 5.121094 Z M 34.558594 46.316406 C 34.558594 51.429688 31.558594 53.761719 27.179688 53.761719 C 23.21875 53.761719 20.363281 51.105469 19.199219 48.640625 L 23.226562 46.203125 C 24 47.578125 25.179688 48.640625 26.878906 48.640625 C 28.503906 48.640625 29.441406 48.003906 29.441406 45.535156 L 29.441406 29.441406 L 34.558594 29.441406 Z M 45.664062 53.761719 C 41.128906 53.761719 38.554688 51.476562 37.121094 48.640625 L 40.960938 46.078125 C 42.003906 47.789062 43.144531 49.425781 45.554688 49.425781 C 47.578125 49.425781 48.640625 48.414062 48.640625 47.015625 C 48.640625 45.34375 47.539062 44.75 45.316406 43.773438 L 44.09375 43.25 C 40.570312 41.75 38.226562 39.871094 38.226562 35.890625 C 38.226562 32.230469 41.019531 29.441406 45.378906 29.441406 C 48.484375 29.441406 50.714844 30.519531 52.324219 33.351562 L 48.523438 35.796875 C 47.683594 34.289062 46.785156 33.699219 45.378906 33.699219 C 43.949219 33.699219 43.046875 34.609375 43.046875 35.796875 C 43.046875 37.261719 43.949219 37.851562 46.046875 38.761719 L 47.265625 39.285156 C 51.421875 41.058594 53.761719 42.875 53.761719 46.953125 C 53.761719 51.351562 50.304688 53.761719 45.664062 53.761719 Z M 45.664062 53.761719 "/>
</g>
</svg>
