<?xml version="1.0" encoding="UTF-8"?>
<svg xmlns="http://www.w3.org/2000/svg" xmlns:xlink="http://www.w3.org/1999/xlink" width="64pt" height="64pt" viewBox="0 0 64 64" version="1.1">
<g id="surface17755414">
<path style=" stroke:none;fill-rule:nonzero;fill:rgb(1.568628%,20%,44.705883%);fill-opacity:1;" d="M 36.078125 -0.00390625 C 39.601562 8.140625 23.449219 13.171875 21.953125 19.960938 C 20.574219 26.191406 31.539062 33.433594 31.546875 33.433594 C 29.878906 30.855469 28.675781 28.726562 27.003906 24.710938 C 24.179688 17.921875 44.199219 11.78125 36.078125 -0.00390625 Z M 46.785156 11.28125 C 46.785156 11.28125 32.644531 12.175781 31.925781 21.226562 C 31.605469 25.253906 35.640625 27.40625 35.761719 30.339844 C 35.851562 32.730469 33.34375 34.726562 33.34375 34.726562 C 33.34375 34.726562 37.890625 33.871094 39.316406 30.214844 C 40.890625 26.160156 36.261719 23.390625 36.726562 20.144531 C 37.175781 17.039062 46.785156 11.28125 46.785156 11.28125 Z M 50.214844 32.183594 C 48.734375 32.121094 47.089844 32.609375 45.601562 33.679688 C 48.519531 33.054688 50.988281 34.839844 50.988281 36.898438 C 50.988281 41.539062 44.285156 45.925781 44.285156 45.925781 C 44.285156 45.925781 54.664062 44.738281 54.664062 37.121094 C 54.664062 33.96875 52.675781 32.300781 50.214844 32.183594 Z M 24.554688 32.195312 C 24.554688 32.195312 11.601562 32.019531 11.601562 35.683594 C 11.601562 39.515625 28.566406 39.785156 40.679688 37.425781 C 40.679688 37.425781 43.914062 35.210938 44.773438 34.386719 C 36.835938 36.003906 18.714844 36.21875 18.714844 34.820312 C 18.714844 33.523438 24.554688 32.195312 24.554688 32.195312 Z M 21.425781 39.324219 C 19.441406 39.324219 16.476562 40.859375 16.476562 42.339844 C 16.476562 45.316406 31.441406 47.609375 42.519531 43.261719 L 38.683594 40.910156 C 31.175781 43.316406 17.328125 42.546875 21.425781 39.324219 Z M 23.269531 45.980469 C 20.546875 45.980469 18.78125 47.660156 18.78125 48.898438 C 18.78125 52.71875 35.046875 53.105469 41.488281 49.21875 L 37.394531 46.613281 C 32.578125 48.648438 20.488281 48.925781 23.269531 45.980469 Z M 14.195312 49.441406 C 9.753906 49.351562 6.871094 51.34375 6.871094 53 C 6.863281 61.800781 52.339844 61.375 52.339844 52.378906 C 52.339844 50.890625 50.578125 50.179688 49.945312 49.839844 C 53.660156 58.441406 12.761719 57.773438 12.761719 52.699219 C 12.761719 51.546875 15.761719 50.410156 18.550781 50.953125 L 16.183594 49.609375 C 15.488281 49.503906 14.824219 49.449219 14.195312 49.441406 Z M 57.136719 55.359375 C 50.21875 61.910156 32.699219 64.300781 15.078125 60.253906 C 32.695312 67.460938 57.046875 63.40625 57.136719 55.359375 Z M 57.136719 55.359375 "/>
</g>
</svg>
