<?xml version="1.0" encoding="UTF-8"?>
<svg xmlns="http://www.w3.org/2000/svg" xmlns:xlink="http://www.w3.org/1999/xlink" width="64pt" height="64pt" viewBox="0 0 64 64" version="1.1">
<defs>
<clipPath id="clip1">
  <path d="M 6.160156 2.691406 L 31.417969 2.691406 L 31.417969 27.953125 L 6.160156 27.953125 Z M 6.160156 2.691406 "/>
</clipPath>
<clipPath id="clip2">
  <path d="M 32.351562 9.621094 L 57.578125 9.621094 L 57.578125 34.851562 L 32.351562 34.851562 Z M 32.351562 9.621094 "/>
</clipPath>
<clipPath id="clip3">
  <path d="M 6.160156 28.886719 L 31.390625 28.886719 L 31.390625 54.117188 L 6.160156 54.117188 Z M 6.160156 28.886719 "/>
</clipPath>
<clipPath id="clip4">
  <path d="M 32.351562 35.8125 L 57.609375 35.8125 L 57.609375 61.074219 L 32.351562 61.074219 Z M 32.351562 35.8125 "/>
</clipPath>
</defs>
<g id="surface1">
<g clip-path="url(#clip1)" clip-rule="nonzero">
<path style=" stroke:none;fill-rule:nonzero;fill:rgb(94.117647%,88.235294%,0%);fill-opacity:1;" d="M 6.160156 2.691406 L 31.417969 2.691406 L 31.417969 27.953125 L 6.160156 27.953125 Z M 6.160156 2.691406 "/>
</g>
<g clip-path="url(#clip2)" clip-rule="nonzero">
<path style=" stroke:none;fill-rule:nonzero;fill:rgb(100%,100%,100%);fill-opacity:1;" d="M 32.351562 9.621094 L 57.578125 9.621094 L 57.578125 34.851562 L 32.351562 34.851562 Z M 32.351562 9.621094 "/>
</g>
<g clip-path="url(#clip3)" clip-rule="nonzero">
<path style=" stroke:none;fill-rule:nonzero;fill:rgb(100%,100%,100%);fill-opacity:1;" d="M 6.160156 28.886719 L 31.390625 28.886719 L 31.390625 54.117188 L 6.160156 54.117188 Z M 6.160156 28.886719 "/>
</g>
<g clip-path="url(#clip4)" clip-rule="nonzero">
<path style=" stroke:none;fill-rule:nonzero;fill:rgb(94.117647%,88.235294%,0%);fill-opacity:1;" d="M 32.351562 35.8125 L 57.609375 35.8125 L 57.609375 61.074219 L 32.351562 61.074219 Z M 32.351562 35.8125 "/>
</g>
<path style=" stroke:none;fill-rule:nonzero;fill:rgb(33.333333%,33.333333%,33.333333%);fill-opacity:1;" d="M 23.230469 15.480469 C 23.230469 14.703125 23.070312 13.992188 22.785156 13.324219 C 22.5 12.660156 22.105469 12.085938 21.609375 11.609375 C 21.105469 11.132812 20.515625 10.769531 19.847656 10.5 C 19.164062 10.230469 18.433594 10.085938 17.671875 10.085938 L 14.84375 10.085938 L 14.84375 20.882812 L 17.671875 20.882812 C 18.433594 20.882812 19.164062 20.757812 19.847656 20.488281 C 20.515625 20.214844 21.105469 19.832031 21.609375 19.359375 C 22.105469 18.882812 22.5 18.328125 22.785156 17.660156 C 23.070312 16.992188 23.230469 16.28125 23.230469 15.480469 Z M 22.152344 15.480469 C 22.152344 16.722656 21.707031 17.757812 20.847656 18.566406 C 19.988281 19.375 18.941406 19.769531 17.707031 19.769531 L 15.957031 19.769531 L 15.957031 11.195312 L 17.707031 11.195312 C 18.941406 11.195312 19.988281 11.609375 20.847656 12.402344 C 21.707031 13.226562 22.152344 14.261719 22.152344 15.480469 Z M 22.152344 15.480469 "/>
<path style=" stroke:none;fill-rule:nonzero;fill:rgb(33.333333%,33.333333%,33.333333%);fill-opacity:1;" d="M 45.582031 22.730469 L 49.664062 17.011719 L 48.25 17.011719 L 45.027344 21.632812 L 41.804688 17.011719 L 40.375 17.011719 L 44.472656 22.742188 L 44.472656 27.808594 L 45.582031 27.808594 Z M 45.582031 22.730469 "/>
<path style=" stroke:none;fill-rule:nonzero;fill:rgb(33.333333%,33.333333%,33.333333%);fill-opacity:1;" d="M 19.175781 41.992188 L 23.253906 36.277344 L 21.839844 36.277344 L 18.621094 40.898438 L 15.394531 36.277344 L 13.964844 36.277344 L 18.066406 42.011719 L 18.066406 47.074219 L 19.175781 47.074219 Z M 19.175781 41.992188 "/>
<path style=" stroke:none;fill-rule:nonzero;fill:rgb(33.333333%,33.333333%,33.333333%);fill-opacity:1;" d="M 49.453125 48.605469 C 49.453125 47.824219 49.292969 47.109375 49.007812 46.441406 C 48.71875 45.773438 48.320312 45.203125 47.828125 44.726562 C 47.320312 44.253906 46.730469 43.886719 46.066406 43.617188 C 45.382812 43.347656 44.652344 43.203125 43.894531 43.203125 L 41.066406 43.203125 L 41.066406 54 L 43.894531 54 C 44.652344 54 45.382812 53.871094 46.066406 53.605469 C 46.730469 53.335938 47.320312 52.957031 47.828125 52.476562 C 48.320312 52 48.71875 51.445312 49.007812 50.777344 C 49.292969 50.109375 49.453125 49.394531 49.453125 48.605469 Z M 48.367188 48.605469 C 48.367188 49.84375 47.925781 50.875 47.066406 51.683594 C 46.210938 52.492188 45.164062 52.890625 43.921875 52.890625 L 42.175781 52.890625 L 42.175781 44.316406 L 43.921875 44.316406 C 45.164062 44.316406 46.210938 44.726562 47.066406 45.523438 C 47.925781 46.347656 48.367188 47.378906 48.367188 48.605469 Z M 48.367188 48.605469 "/>
</g>
</svg>
