<?xml version="1.0" encoding="UTF-8"?>
<svg xmlns="http://www.w3.org/2000/svg" xmlns:xlink="http://www.w3.org/1999/xlink" width="64pt" height="64pt" viewBox="0 0 64 64" version="1.1">
<g id="surface17757565">
<path style=" stroke:none;fill-rule:nonzero;fill:rgb(1.568628%,20%,44.705883%);fill-opacity:1;" d="M 32 49.199219 C 14.574219 49.199219 0.398438 41.484375 0.398438 32 C 0.398438 22.515625 14.574219 14.800781 32 14.800781 C 49.425781 14.800781 63.601562 22.515625 63.601562 32 C 63.601562 41.484375 49.425781 49.199219 32 49.199219 Z M 32 49.199219 "/>
<path style=" stroke:none;fill-rule:nonzero;fill:rgb(1.568628%,20%,44.705883%);fill-opacity:1;" d="M 32 15.199219 C 49.203125 15.199219 63.199219 22.738281 63.199219 32 C 63.199219 41.261719 49.203125 48.800781 32 48.800781 C 14.796875 48.800781 0.800781 41.261719 0.800781 32 C 0.800781 22.738281 14.796875 15.199219 32 15.199219 M 32 14.398438 C 14.328125 14.398438 0 22.28125 0 32 C 0 41.71875 14.328125 49.601562 32 49.601562 C 49.671875 49.601562 64 41.71875 64 32 C 64 22.28125 49.671875 14.398438 32 14.398438 Z M 32 14.398438 "/>
<path style=" stroke:none;fill-rule:nonzero;fill:rgb(100%,100%,100%);fill-opacity:1;" d="M 20.089844 27.199219 C 21.46875 27.199219 22.660156 27.699219 23.355469 28.566406 C 23.957031 29.3125 24.140625 30.300781 23.890625 31.425781 C 23.21875 34.460938 21.914062 35.199219 17.257812 35.199219 L 13.945312 35.199219 L 15.34375 27.199219 L 20.089844 27.199219 M 20.089844 25.601562 L 14 25.601562 L 11.199219 41.601562 L 12.800781 41.601562 L 13.644531 36.800781 L 17.257812 36.800781 C 21.945312 36.800781 24.5 36.074219 25.453125 31.773438 C 26.273438 28.078125 23.546875 25.601562 20.089844 25.601562 Z M 48.890625 27.199219 C 50.269531 27.199219 51.460938 27.699219 52.15625 28.566406 C 52.757812 29.3125 52.941406 30.300781 52.691406 31.425781 C 52.019531 34.460938 50.714844 35.199219 46.054688 35.199219 L 42.742188 35.199219 L 44.144531 27.199219 L 48.890625 27.199219 M 48.890625 25.601562 L 42.800781 25.601562 L 40 41.601562 L 41.601562 41.601562 L 42.445312 36.800781 L 46.058594 36.800781 C 50.746094 36.800781 53.300781 36.074219 54.253906 31.773438 C 55.074219 28.078125 52.347656 25.601562 48.890625 25.601562 Z M 48.890625 25.601562 "/>
<path style=" stroke:none;fill-rule:nonzero;fill:rgb(100%,100%,100%);fill-opacity:1;" d="M 39.257812 26.570312 C 38.554688 25.878906 37.316406 25.601562 35.46875 25.601562 L 31.035156 25.601562 L 32 20.800781 L 30.320312 20.800781 L 27.199219 36.800781 L 28.792969 36.800781 L 30.703125 27.199219 L 35.46875 27.199219 C 37.339844 27.199219 37.941406 27.519531 38.136719 27.710938 C 38.410156 27.980469 38.476562 28.691406 38.308594 29.601562 L 36.894531 36.800781 L 38.582031 36.800781 L 39.882812 29.894531 C 40.160156 28.371094 39.949219 27.25 39.257812 26.570312 Z M 39.257812 26.570312 "/>
</g>
</svg>
